<?xml version="1.0" standalone="no"?>
<!DOCTYPE svg PUBLIC "-//W3C//DTD SVG 20010904//EN"
 "http://www.w3.org/TR/2001/REC-SVG-20010904/DTD/svg10.dtd">
<svg version="1.0" xmlns="http://www.w3.org/2000/svg"
 width="512.000000pt" height="512.000000pt" viewBox="0 0 512.000000 512.000000"
 preserveAspectRatio="xMidYMid meet">
<metadata>
Created by potrace 1.14, written by Peter Selinger 2001-2017
</metadata>
<g transform="translate(0.000000,512.000000) scale(0.100000,-0.100000)"
fill="#000000" stroke="none">
<path d="M1700 4523 c0 -6 -9 -10 -20 -8 -11 2 -20 0 -20 -4 0 -5 -12 -6 -26
-3 -19 3 -25 1 -20 -6 5 -8 2 -10 -8 -6 -9 3 -16 1 -16 -5 0 -6 -5 -11 -11
-11 -5 0 -7 6 -4 13 4 6 -1 3 -9 -7 -9 -11 -16 -16 -16 -10 0 5 -7 0 -15 -10
-8 -11 -15 -17 -15 -13 0 4 -9 -2 -20 -13 -12 -12 -25 -18 -29 -15 -5 2 -8 -3
-7 -13 0 -9 -5 -16 -11 -14 -12 2 -17 -10 -14 -30 0 -5 -5 -7 -12 -5 -7 1 -12
-7 -11 -20 1 -13 -3 -20 -11 -17 -7 3 -15 -2 -19 -11 -3 -10 -2 -14 5 -9 8 5
8 1 0 -13 -6 -11 -7 -24 -3 -29 4 -5 -1 -2 -11 5 -16 13 -17 12 -8 -12 8 -21
7 -28 -7 -36 -10 -6 -12 -11 -4 -11 14 0 12 -21 -3 -32 -6 -5 -4 -8 5 -8 13 0
13 -1 0 -10 -13 -9 -13 -10 0 -10 13 0 13 -1 0 -10 -8 -5 -10 -10 -4 -10 12 0
12 -29 0 -48 -4 -7 -2 -12 5 -12 8 0 8 -4 -1 -15 -10 -12 -10 -15 0 -15 10 0
10 -3 0 -15 -15 -18 -34 -20 -24 -2 6 9 5 9 -7 0 -8 -7 -28 -10 -43 -7 -20 3
-25 1 -20 -7 5 -8 3 -9 -7 -3 -8 5 -22 7 -33 5 -13 -2 -16 1 -10 11 6 10 5 11
-7 1 -15 -12 -36 -12 -56 0 -6 4 -15 2 -19 -4 -5 -8 -3 -9 6 -4 8 5 11 4 6 -3
-4 -7 -17 -7 -39 -1 -32 9 -67 6 -87 -6 -6 -4 -7 1 -3 12 6 16 5 16 -10 4 -9
-7 -23 -11 -31 -8 -7 3 -19 0 -26 -6 -9 -9 -11 -9 -7 -1 9 15 -20 27 -29 12
-5 -7 -2 -8 6 -3 9 5 11 4 6 -4 -4 -6 -13 -8 -19 -4 -21 13 -49 14 -41 1 5 -7
3 -8 -7 -2 -8 5 -22 7 -33 5 -13 -2 -16 1 -10 11 4 7 -3 4 -16 -7 -13 -11 -20
-15 -17 -9 9 15 -20 27 -29 12 -5 -7 -2 -8 6 -3 9 5 11 4 6 -4 -4 -6 -13 -8
-19 -4 -21 13 -49 14 -41 1 5 -7 3 -8 -7 -2 -8 5 -22 7 -33 5 -13 -2 -16 1
-10 11 6 10 5 11 -7 1 -8 -6 -30 -10 -49 -8 -19 1 -43 -1 -52 -6 -14 -8 -16
-6 -11 8 6 15 4 16 -8 6 -15 -12 -76 -13 -96 0 -6 4 -15 2 -19 -4 -5 -8 -3 -9
6 -4 9 5 11 4 6 -4 -4 -6 -13 -8 -19 -4 -20 12 -67 10 -79 -4 -9 -11 -14 -11
-28 2 -13 12 -20 13 -25 5 -5 -8 -13 -6 -26 6 -19 17 -20 17 -13 -1 5 -12 4
-16 -4 -11 -6 3 -13 2 -17 -4 -4 -6 -11 -8 -16 -5 -5 4 -9 1 -9 -5 0 -6 -4 -9
-9 -6 -5 3 -11 -1 -15 -9 -3 -8 -12 -12 -21 -9 -11 4 -15 0 -15 -16 0 -16 -4
-20 -16 -16 -8 3 -12 2 -9 -4 3 -6 1 -10 -5 -10 -6 0 -8 -4 -5 -10 3 -5 1 -10
-5 -10 -13 0 -31 -46 -32 -82 -1 -17 -5 -25 -12 -21 -6 4 -5 -1 3 -10 10 -13
10 -17 1 -17 -10 0 -10 -3 0 -15 10 -12 10 -15 -1 -16 -8 0 -5 -4 6 -9 16 -7
17 -9 3 -9 -9 -1 -20 -5 -23 -11 -3 -5 0 -7 7 -5 9 4 14 -3 15 -17 2 -19 0
-20 -8 -8 -9 12 -10 12 -5 -2 3 -10 9 -25 12 -33 5 -12 2 -14 -12 -8 -18 7
-18 6 -2 -11 14 -14 16 -22 7 -38 -8 -15 -8 -19 0 -14 6 4 11 3 11 -3 0 -5 -6
-12 -12 -14 -10 -4 -10 -6 0 -6 6 -1 12 -6 12 -12 0 -5 -5 -7 -11 -3 -8 4 -8
0 0 -15 9 -16 9 -21 -1 -22 -7 0 -4 -4 7 -9 16 -7 17 -9 3 -9 -9 -1 -20 -5
-23 -11 -3 -5 0 -7 7 -5 9 4 14 -3 15 -17 2 -19 0 -20 -8 -8 -9 12 -10 12 -5
-2 3 -10 9 -25 12 -33 5 -12 2 -14 -12 -8 -18 7 -18 6 -2 -11 14 -14 16 -22 7
-38 -8 -15 -8 -19 0 -14 6 4 11 3 11 -3 0 -5 -6 -12 -12 -14 -10 -4 -10 -6 0
-6 6 -1 12 -6 12 -12 0 -5 -5 -7 -11 -3 -8 4 -8 0 0 -15 9 -16 9 -21 -1 -22
-7 0 -4 -4 7 -9 16 -7 17 -9 3 -9 -9 -1 -20 -5 -23 -11 -3 -5 0 -7 7 -5 9 4
14 -3 15 -17 2 -19 0 -20 -8 -8 -9 12 -10 12 -5 -2 3 -10 9 -25 12 -33 5 -12
2 -14 -12 -8 -18 7 -18 6 -2 -11 14 -14 16 -22 7 -38 -8 -15 -8 -19 0 -14 6 4
11 3 11 -3 0 -5 -6 -12 -12 -14 -10 -4 -10 -6 0 -6 6 -1 12 -6 12 -12 0 -5 -5
-7 -11 -3 -8 4 -8 0 0 -15 9 -16 9 -21 -1 -22 -7 0 -4 -4 7 -9 16 -7 17 -9 3
-9 -9 -1 -20 -5 -23 -11 -3 -5 0 -7 7 -5 9 4 14 -3 15 -17 2 -19 0 -20 -8 -8
-10 13 -10 13 -6 0 3 -8 8 -23 12 -33 6 -14 4 -16 -11 -10 -18 7 -18 6 -2 -11
14 -14 16 -22 7 -38 -8 -15 -8 -19 0 -14 6 4 11 3 11 -3 0 -5 -6 -12 -12 -14
-10 -4 -10 -6 0 -6 6 -1 12 -6 12 -12 0 -5 -5 -7 -11 -3 -8 4 -8 0 0 -15 9
-16 9 -21 -1 -22 -7 0 -4 -4 7 -9 16 -7 17 -9 3 -9 -9 -1 -20 -5 -23 -11 -3
-5 0 -7 7 -5 9 4 14 -3 15 -17 2 -19 0 -20 -8 -8 -9 12 -10 12 -5 -2 3 -10 9
-25 12 -33 5 -12 2 -14 -12 -8 -18 7 -18 6 -2 -11 14 -14 16 -22 7 -38 -8 -15
-8 -19 0 -14 6 4 11 3 11 -3 0 -5 -6 -12 -12 -14 -10 -4 -10 -6 0 -6 6 -1 12
-6 12 -12 0 -5 -5 -7 -11 -3 -8 4 -8 0 0 -15 9 -16 9 -21 -1 -22 -7 0 -4 -4 7
-9 16 -7 17 -9 3 -9 -9 -1 -20 -5 -23 -11 -3 -5 0 -7 7 -5 9 4 14 -3 15 -17 2
-19 0 -20 -8 -8 -9 12 -9 11 -4 -5 4 -11 9 -26 12 -33 4 -8 0 -10 -13 -5 -18
7 -18 6 -2 -11 14 -14 16 -22 7 -38 -8 -15 -8 -19 0 -14 6 4 11 3 11 -3 0 -5
-6 -12 -12 -14 -10 -4 -10 -6 0 -6 6 -1 12 -6 12 -12 0 -5 -5 -7 -11 -3 -8 4
-8 0 0 -15 9 -16 9 -21 -1 -22 -7 0 -4 -4 7 -9 16 -7 17 -9 3 -9 -9 -1 -20 -5
-23 -11 -3 -5 0 -7 7 -5 9 4 14 -3 15 -17 2 -19 0 -20 -8 -8 -9 12 -9 11 -4
-5 4 -11 9 -26 12 -33 4 -8 0 -10 -13 -5 -18 7 -18 6 -2 -11 14 -14 16 -22 7
-38 -8 -15 -8 -19 0 -14 6 4 11 3 11 -3 0 -5 -6 -12 -12 -14 -10 -4 -10 -6 0
-6 6 -1 12 -6 12 -12 0 -5 -5 -7 -11 -3 -8 4 -8 0 0 -15 9 -16 9 -21 -1 -22
-7 0 -4 -4 7 -9 16 -7 17 -9 3 -9 -9 -1 -20 -5 -23 -11 -3 -5 0 -7 7 -5 9 4
14 -3 15 -17 2 -19 0 -20 -8 -8 -9 12 -10 12 -5 -2 3 -10 9 -25 12 -33 5 -12
2 -14 -12 -8 -18 7 -18 6 -2 -11 14 -14 16 -22 7 -38 -8 -15 -8 -19 0 -14 6 4
11 3 11 -3 0 -5 -6 -12 -12 -14 -10 -4 -10 -6 0 -6 6 -1 12 -6 12 -12 0 -5 -5
-7 -11 -3 -8 5 -8 1 0 -14 13 -25 14 -35 3 -28 -5 3 -9 -1 -9 -9 0 -8 4 -12 9
-9 4 3 8 0 8 -6 0 -6 -7 -13 -15 -16 -8 -4 -12 -11 -9 -16 4 -7 9 -6 14 1 3 7
7 -2 7 -18 0 -17 -5 -28 -10 -24 -5 3 -4 -4 2 -15 6 -12 7 -23 2 -26 -10 -7
-3 -44 10 -52 5 -3 6 2 3 11 -4 10 -2 15 7 13 10 -2 13 5 11 21 -3 16 0 21 9
16 7 -5 10 -4 5 3 -3 6 0 17 8 25 11 11 12 17 3 27 -9 10 -9 11 1 6 6 -4 12
-2 12 5 0 6 8 18 18 26 9 8 11 11 4 8 -11 -6 -11 -3 0 16 7 13 16 26 19 29 4
3 10 16 14 30 4 14 15 31 24 38 12 10 12 12 1 6 -13 -7 -13 -6 0 12 8 10 20
22 25 26 6 5 4 8 -4 8 -9 0 -6 7 9 20 15 13 18 20 9 20 -12 0 -12 2 0 9 7 5
10 14 7 20 -5 7 -2 10 6 9 7 -2 12 5 12 15 -1 10 5 17 15 17 13 0 13 2 2 9
-11 7 -10 11 5 19 11 6 20 21 21 34 1 12 7 24 13 26 5 2 10 12 10 22 0 10 6
25 13 32 8 7 13 21 11 31 -1 9 2 15 7 11 5 -3 9 1 9 9 0 7 9 23 20 34 12 14
15 23 8 25 -7 3 -4 12 9 25 16 16 18 24 10 33 -9 8 -8 10 6 4 10 -3 17 -3 16
2 -4 22 2 45 10 40 5 -3 12 1 15 10 4 10 2 13 -6 8 -6 -4 -3 7 8 25 10 17 22
31 26 31 4 0 5 9 3 21 -3 15 0 19 10 15 9 -3 12 1 10 15 -2 10 0 19 5 19 5 0
7 9 5 19 -3 15 1 18 13 14 9 -3 14 -3 10 2 -4 4 -2 15 5 23 10 13 9 15 -3 8
-11 -5 -10 -4 1 6 9 7 19 22 21 33 2 11 11 19 19 17 11 -3 11 -1 2 9 -10 10
-9 15 2 23 8 6 16 23 17 38 2 22 5 25 17 15 10 -8 13 -8 8 -1 -7 12 16 78 24
70 3 -3 6 4 6 15 1 12 10 27 20 35 17 13 17 14 -2 8 -19 -5 -19 -5 -3 8 10 8
22 27 28 42 6 17 14 24 22 20 7 -4 8 -3 4 5 -10 15 2 64 13 56 5 -2 12 7 16
22 3 15 14 33 23 40 15 12 15 13 -3 7 -19 -5 -19 -5 -1 10 10 8 15 19 12 25
-4 5 -2 12 4 16 6 4 8 11 5 16 -3 5 1 6 10 3 9 -4 15 -3 14 2 -3 20 2 35 10
30 5 -4 8 2 7 11 -2 10 4 23 13 30 11 9 12 12 3 13 -8 0 -5 8 8 22 11 12 18
28 15 36 -2 7 0 10 5 7 6 -3 10 -1 10 5 0 6 5 8 12 4 6 -4 8 -3 4 4 -3 6 8 24
25 41 16 17 27 35 24 41 -4 6 -3 10 2 9 21 -4 34 2 27 13 -5 8 -2 9 9 5 13 -5
17 -1 17 16 0 18 2 19 10 7 8 -13 10 -12 10 3 0 10 5 15 10 12 6 -3 13 1 16 9
3 9 12 16 20 16 8 0 14 5 14 11 0 5 5 7 10 4 5 -3 10 -1 10 4 0 6 7 11 15 11
8 0 24 10 36 23 17 17 20 18 16 5 -5 -15 -4 -16 13 -5 11 6 20 16 20 21 0 4 8
2 18 -5 9 -7 14 -9 10 -5 -8 9 19 35 37 36 6 0 4 -4 -4 -9 -8 -5 -9 -11 -3
-15 6 -3 13 3 17 14 5 16 10 18 25 10 12 -6 21 -6 25 -1 3 6 26 9 50 7 25 -1
45 2 45 7 0 6 5 6 13 -1 6 -5 21 -6 32 -2 13 5 26 2 38 -8 17 -15 17 -14 11 4
-7 17 -6 18 11 4 11 -9 16 -10 11 -2 -8 14 3 16 23 3 9 -6 22 -6 32 -1 9 5 19
6 23 3 9 -9 65 -9 59 0 -7 11 9 8 39 -7 23 -12 29 -12 39 0 6 8 19 14 28 14
14 0 14 -2 1 -10 -8 -5 -10 -10 -4 -10 5 0 16 6 22 12 10 10 17 10 32 0 16
-10 20 -10 20 0 0 8 7 4 17 -7 13 -16 15 -17 10 -2 -7 20 4 22 21 5 9 -9 12
-9 12 1 0 11 3 11 17 0 14 -12 16 -12 9 0 -6 9 -5 12 5 9 8 -3 13 -12 11 -19
-1 -9 3 -8 11 4 16 20 32 23 21 5 -6 -10 -4 -10 7 0 7 6 20 12 28 12 14 0 14
-1 1 -10 -9 -6 -10 -10 -3 -10 6 0 15 5 18 10 3 6 11 10 16 10 6 0 7 -5 3 -11
-5 -8 -1 -8 13 0 11 6 23 7 27 4 9 -9 65 -9 59 0 -6 10 5 9 29 -4 15 -8 19 -8
14 0 -4 6 -3 11 3 11 5 0 12 -6 14 -12 4 -10 6 -9 6 1 1 11 4 11 16 1 12 -10
15 -10 15 0 0 9 4 9 17 -1 11 -10 14 -10 9 -1 -10 17 4 15 26 -5 18 -16 18
-16 12 3 -7 17 -6 18 11 4 11 -9 16 -10 11 -2 -9 15 -1 15 26 1 15 -8 19 -8
14 0 -10 15 7 14 22 -1 9 -9 12 -9 12 1 0 11 3 11 17 0 11 -10 14 -10 9 -1
-10 17 4 15 26 -5 18 -16 18 -16 12 3 -7 17 -6 18 11 4 11 -9 16 -10 11 -2 -9
15 -1 15 26 1 14 -8 23 -8 31 0 6 6 18 11 27 11 13 0 13 -1 0 -10 -8 -5 -10
-10 -5 -10 6 0 17 6 23 12 10 10 17 10 32 0 16 -10 20 -10 20 0 0 8 7 4 17 -7
13 -16 15 -17 10 -2 -7 20 -3 21 25 6 15 -8 19 -8 14 0 -10 15 7 14 22 -1 9
-9 12 -8 13 8 0 10 3 13 6 6 2 -7 14 -17 26 -24 19 -10 20 -9 10 3 -10 12 -7
15 15 17 21 1 24 0 12 -8 -9 -6 -10 -10 -3 -10 6 0 15 5 18 10 3 6 14 10 23
10 15 0 15 -2 2 -10 -9 -6 -10 -10 -3 -10 6 0 15 5 18 10 3 6 14 10 23 10 15
0 15 -2 2 -10 -8 -5 -10 -10 -5 -10 6 0 17 6 23 12 10 10 17 10 32 0 16 -10
20 -10 20 0 0 8 7 4 17 -7 9 -11 13 -14 11 -5 -4 12 4 15 37 15 24 0 41 -4 38
-8 -3 -5 4 -4 15 2 26 14 35 14 26 0 -5 -8 -1 -8 14 0 15 8 22 8 25 -2 4 -9 6
-9 6 1 1 6 9 12 19 12 14 0 15 -2 2 -10 -9 -6 -10 -10 -3 -10 6 0 15 5 18 10
3 6 14 10 23 10 15 0 15 -2 2 -10 -8 -5 -10 -10 -4 -10 5 0 16 6 22 12 10 10
17 10 32 0 16 -10 20 -10 20 0 0 8 7 4 17 -7 13 -16 15 -17 10 -2 -7 20 -3 21
25 6 15 -8 19 -8 14 0 -10 15 7 14 22 -1 9 -9 12 -8 13 7 0 11 3 14 6 7 2 -7
14 -17 26 -24 19 -10 20 -9 10 3 -10 12 -7 15 15 17 21 1 24 0 12 -8 -9 -6
-10 -10 -3 -10 6 0 15 5 18 10 3 6 14 10 23 10 15 0 15 -2 2 -10 -9 -6 -10
-10 -3 -10 6 0 15 5 18 10 3 6 14 10 23 10 15 0 15 -2 2 -10 -8 -5 -10 -10 -4
-10 5 0 16 6 22 12 10 10 17 10 32 0 16 -10 20 -10 20 0 0 8 7 4 17 -7 9 -11
13 -14 11 -5 -4 12 4 15 37 15 24 0 41 -4 38 -8 -3 -5 4 -4 15 2 11 6 23 11
27 11 3 0 3 -5 -1 -11 -5 -8 -1 -8 14 0 15 8 22 8 25 -2 4 -9 6 -9 6 1 1 6 6
12 12 12 5 0 8 -4 5 -8 -3 -5 1 -9 9 -9 8 0 12 4 9 9 -8 12 8 10 39 -7 15 -8
25 -10 22 -5 -4 6 -2 10 4 10 5 0 17 3 27 7 10 4 15 2 11 -4 -3 -5 0 -10 8
-10 8 0 12 4 9 9 -3 4 -1 8 5 8 5 0 11 -6 14 -12 2 -7 8 -1 12 14 4 17 12 25
19 21 6 -3 2 4 -9 17 -11 13 -14 20 -7 16 10 -6 12 1 7 34 -4 28 -3 40 4 35 7
-3 8 0 5 9 -3 9 -11 16 -18 16 -6 0 -3 5 7 11 16 9 16 12 2 31 -11 16 -12 25
-3 35 8 11 7 12 -6 7 -9 -4 -16 -3 -15 2 4 21 -2 35 -11 29 -6 -3 -7 1 -4 9 3
9 1 16 -6 16 -6 0 -9 4 -6 8 3 5 -4 14 -14 22 -10 8 -16 18 -13 23 4 6 1 7 -6
3 -7 -5 -17 -1 -24 8 -7 9 -22 18 -35 19 -12 0 -22 4 -22 7 0 3 -12 7 -27 8
-15 1 -32 7 -37 12 -6 6 -16 4 -27 -6 -13 -12 -19 -12 -25 -3 -5 8 -3 10 6 4
8 -5 11 -4 7 3 -9 13 -30 10 -53 -8 -10 -8 -15 -10 -11 -4 4 7 0 15 -9 18 -9
3 -12 2 -9 -5 5 -7 -7 -8 -35 -4 -33 5 -40 3 -35 -7 6 -10 5 -10 -5 -1 -7 6
-19 9 -28 6 -11 -5 -13 -3 -7 8 7 12 6 12 -7 1 -13 -10 -18 -10 -24 -1 -5 9
-11 7 -21 -6 -7 -11 -13 -14 -13 -8 0 6 -7 14 -16 17 -9 3 -12 2 -9 -5 5 -7
-7 -8 -35 -4 -33 5 -40 3 -34 -7 6 -10 4 -10 -9 1 -9 7 -17 10 -17 6 0 -4 -8
-1 -17 6 -13 11 -15 11 -9 1 6 -10 -1 -12 -34 -7 -33 5 -40 3 -35 -7 6 -10 5
-10 -5 -1 -7 6 -19 9 -28 6 -11 -5 -13 -3 -7 8 7 12 6 12 -7 1 -13 -10 -18
-10 -24 -1 -5 9 -11 7 -21 -6 -7 -11 -13 -14 -13 -8 0 6 -7 14 -16 17 -9 3
-12 2 -9 -5 5 -7 -7 -8 -35 -4 -33 5 -40 3 -34 -7 6 -10 4 -10 -9 1 -9 7 -17
10 -17 6 0 -4 -8 -1 -17 6 -13 11 -15 11 -9 1 6 -10 -1 -12 -34 -7 -33 5 -40
3 -35 -7 6 -10 5 -10 -5 -1 -7 6 -19 9 -28 6 -11 -5 -13 -3 -7 8 7 12 6 12 -7
1 -13 -10 -18 -10 -24 -1 -5 9 -11 7 -21 -6 -7 -11 -13 -14 -13 -8 0 6 -7 14
-16 17 -9 3 -12 2 -9 -5 5 -7 -7 -8 -35 -4 -33 5 -40 3 -34 -7 6 -10 5 -10 -7
-1 -8 6 -18 11 -24 10 -16 -3 -18 32 -3 51 11 15 11 15 -2 5 -14 -10 -16 -4
-15 48 0 32 5 59 10 59 6 0 3 5 -5 10 -17 10 -20 41 -5 52 6 4 1 8 -10 8 -17
0 -17 2 -5 10 9 6 11 10 3 10 -7 0 -10 7 -6 17 4 10 2 14 -4 10 -6 -4 -14 0
-17 9 -4 10 -2 13 7 9 6 -4 4 0 -5 8 -10 8 -18 21 -18 30 0 9 -9 22 -20 30
-11 8 -17 17 -13 20 6 7 -13 11 -32 7 -5 -1 -7 1 -3 5 10 10 -17 35 -36 35 -9
0 -16 7 -16 16 0 8 -4 13 -9 9 -5 -3 -12 -1 -16 5 -3 5 -15 10 -26 10 -12 0
-17 4 -13 11 4 7 0 9 -12 5 -11 -3 -26 -1 -34 4 -9 6 -20 5 -29 -3 -11 -9 -13
-9 -8 0 4 6 3 14 -3 18 -5 3 -10 1 -10 -6 0 -10 -3 -10 -11 -2 -8 8 -20 8 -35
3 -14 -6 -26 -6 -29 0 -5 8 -50 4 -67 -6 -4 -3 -8 1 -8 8 0 10 -2 10 -9 -1 -6
-9 -11 -10 -15 -2 -4 7 -15 7 -31 1 -14 -5 -27 -6 -30 0 -5 8 -50 4 -67 -6 -4
-3 -8 1 -8 8 0 10 -2 10 -9 -1 -6 -9 -11 -10 -15 -2 -4 7 -15 7 -31 1 -14 -5
-27 -6 -30 0 -6 9 -37 6 -55 -5 -6 -3 -10 0 -10 7 0 10 -2 10 -9 -1 -6 -9 -10
-10 -16 -2 -5 9 -11 9 -23 -1 -9 -7 -13 -8 -10 -3 4 6 -2 11 -13 11 -10 0 -19
-3 -19 -6 0 -9 -33 -6 -49 5 -11 6 -13 4 -8 -11 6 -17 6 -18 -6 -2 -9 11 -18
14 -27 8 -9 -6 -17 -4 -22 3 -6 9 -8 9 -8 0z m65 -255 c4 0 12 6 16 14 7 11 9
11 9 -1 0 -10 3 -11 13 -2 10 8 17 7 25 -1 8 -8 16 -8 28 3 12 9 15 10 10 2
-4 -7 -3 -13 3 -13 5 0 13 5 17 11 4 8 9 8 17 0 7 -7 15 -7 26 2 9 7 12 8 8 1
-7 -13 46 -14 59 -2 3 4 15 3 25 -3 13 -7 19 -6 19 1 0 6 5 8 10 5 6 -4 8 -12
4 -18 -3 -7 2 -3 10 7 10 13 16 15 16 7 0 -11 3 -11 17 0 11 10 14 10 9 2 -4
-7 -3 -13 3 -13 5 0 13 5 17 11 4 7 10 7 16 1 7 -7 19 -7 36 -1 16 6 29 6 35
0 7 -7 17 -6 30 0 11 7 17 7 13 1 -7 -11 43 -10 62 1 6 5 12 4 12 -2 0 -11 19
-9 39 3 11 7 13 5 8 -8 -4 -11 -2 -16 6 -14 23 4 57 -21 50 -39 -4 -11 -3 -14
5 -9 7 4 12 1 12 -8 0 -9 3 -16 8 -16 4 0 8 -18 8 -40 1 -26 -3 -37 -10 -33
-8 5 -8 2 0 -8 13 -16 12 -47 -1 -68 -5 -10 -4 -12 3 -7 8 5 10 2 6 -9 -4 -9
-9 -14 -12 -11 -2 3 -13 1 -23 -5 -15 -7 -17 -6 -13 5 7 19 -24 15 -37 -5 -6
-10 -9 -10 -9 -1 0 6 -9 12 -21 12 -13 0 -18 -4 -13 -12 5 -7 3 -8 -7 -2 -23
14 -51 15 -44 2 4 -7 -1 -4 -9 6 -9 11 -16 14 -16 8 0 -8 -9 -10 -26 -6 -21 5
-25 4 -19 -6 6 -10 4 -11 -6 -4 -23 14 -51 15 -44 2 4 -7 -1 -4 -9 6 -9 11
-16 14 -16 8 0 -8 -9 -10 -26 -6 -17 4 -25 3 -21 -3 3 -5 0 -10 -8 -10 -8 0
-12 4 -9 8 2 4 -39 6 -91 5 -56 -2 -98 1 -102 7 -3 6 -12 2 -20 -8 -7 -11 -13
-13 -13 -7 0 7 -9 12 -21 12 -13 0 -18 -4 -13 -12 6 -10 5 -10 -7 -2 -8 7 -39
11 -71 9 -32 -1 -56 1 -53 5 2 4 -2 7 -10 7 -8 0 -12 -4 -9 -8 2 -4 -9 -7 -26
-7 -23 1 -30 6 -30 20 0 13 -4 17 -12 12 -9 -5 -9 -2 1 9 10 13 10 17 1 17
-10 0 -10 4 1 16 10 13 10 17 -2 25 -11 7 -11 9 0 9 11 0 11 3 1 15 -9 11 -9
15 -1 15 9 0 9 5 0 21 -6 12 -7 19 -2 16 5 -3 15 3 22 15 7 11 8 17 2 14 -7
-4 -8 -1 -5 8 3 9 9 15 12 14 21 -2 30 4 35 24 5 16 9 19 19 10 8 -7 19 -7 28
-2 8 5 18 6 22 4 4 -3 8 1 8 8 0 10 2 10 9 0 4 -8 12 -14 16 -14z m-1 -659
c-3 -5 -10 -7 -15 -3 -5 3 -7 10 -3 15 3 5 10 7 15 3 5 -3 7 -10 3 -15z
m-1689 -1949 c3 -6 -1 -7 -9 -4 -18 7 -21 14 -7 14 6 0 13 -4 16 -10z"/>
<path d="M2190 4270 c0 -5 5 -10 11 -10 5 0 7 5 4 10 -3 6 -8 10 -11 10 -2 0
-4 -4 -4 -10z"/>
<path d="M305 4010 c4 -6 11 -8 16 -5 14 9 11 15 -7 15 -8 0 -12 -5 -9 -10z"/>
<path d="M1570 3377 c12 -16 11 -17 -14 -8 -22 9 -26 8 -26 -7 0 -14 -2 -14
-9 -3 -5 8 -17 16 -25 17 -9 1 -14 -2 -10 -7 3 -5 -6 -5 -20 1 -15 5 -26 6
-26 1 0 -5 -9 -7 -20 -4 -13 3 -20 0 -20 -8 0 -11 -2 -11 -10 1 -7 12 -12 12
-21 3 -9 -9 -16 -10 -26 -2 -10 9 -13 8 -13 -4 0 -10 -7 -15 -19 -12 -11 2
-22 -3 -25 -11 -3 -8 -14 -14 -23 -12 -11 2 -17 -2 -15 -10 2 -10 -4 -11 -19
-7 -13 4 -19 3 -16 -2 4 -6 -5 -16 -18 -23 -13 -7 -21 -18 -18 -24 4 -6 -1 -5
-10 2 -14 12 -16 11 -12 -7 3 -15 0 -18 -12 -14 -11 4 -14 2 -9 -5 3 -6 -2
-16 -13 -22 -13 -7 -18 -16 -14 -27 4 -9 2 -14 -3 -11 -5 3 -15 0 -22 -8 -10
-11 -10 -14 0 -14 8 -1 6 -6 -5 -14 -10 -8 -17 -17 -15 -20 2 -3 -5 -14 -14
-26 -10 -11 -13 -20 -8 -20 7 0 7 -6 1 -19 -6 -10 -7 -21 -3 -25 3 -4 -1 -4
-11 0 -13 4 -17 1 -17 -15 0 -12 -4 -21 -9 -21 -5 0 -7 -10 -4 -22 4 -19 3
-20 -7 -8 -10 12 -11 11 -7 -8 3 -12 2 -20 -2 -18 -4 3 -13 -4 -20 -16 -10
-16 -10 -19 1 -12 10 6 11 5 1 -8 -7 -8 -9 -19 -5 -23 4 -5 1 -5 -5 -1 -12 6
-18 -5 -14 -26 0 -5 -4 -8 -10 -8 -5 0 -7 -5 -4 -10 3 -6 -1 -13 -9 -16 -9 -3
-16 -10 -16 -16 0 -5 6 -6 13 -2 8 5 8 3 -2 -9 -7 -9 -18 -14 -25 -10 -6 4 -4
-2 4 -12 9 -11 10 -16 3 -11 -12 6 -18 -5 -14 -26 0 -5 -4 -8 -10 -8 -5 0 -7
-4 -4 -10 3 -5 2 -10 -4 -10 -6 0 -7 -7 -4 -17 4 -11 3 -14 -5 -9 -11 6 -17
-6 -13 -27 1 -4 -6 -10 -14 -13 -13 -5 -13 -9 -3 -22 8 -9 8 -13 2 -9 -7 4
-18 -1 -25 -10 -12 -14 -12 -16 1 -8 13 8 13 7 1 -8 -7 -9 -10 -17 -5 -17 4 0
0 -6 -11 -13 -10 -8 -15 -19 -11 -26 4 -6 0 -14 -8 -17 -9 -3 -16 -13 -16 -21
0 -9 -5 -11 -12 -7 -9 5 -9 2 1 -9 10 -13 10 -17 1 -17 -7 0 -10 -7 -6 -16 3
-8 2 -12 -4 -9 -11 7 -32 -30 -22 -40 4 -3 -2 -13 -12 -21 -11 -8 -17 -14 -13
-14 4 0 0 -11 -9 -25 -9 -14 -12 -25 -8 -25 5 0 3 -4 -4 -9 -7 -4 -15 -17 -16
-27 -2 -10 -9 -18 -14 -17 -7 2 -9 -4 -5 -14 4 -10 2 -14 -5 -9 -7 4 -10 -1
-7 -14 2 -11 -1 -20 -7 -20 -5 0 -8 -7 -4 -15 3 -8 0 -14 -6 -12 -12 2 -14 -4
-17 -39 0 -9 -6 -12 -13 -8 -8 5 -9 2 -5 -9 4 -10 2 -17 -4 -17 -6 0 -9 -7 -5
-15 5 -13 -4 -19 -25 -17 -3 1 -6 -5 -6 -13 0 -8 5 -12 10 -8 14 8 -36 -80
-53 -94 -10 -9 -11 -12 -3 -13 8 0 5 -8 -7 -20 -12 -12 -18 -25 -15 -30 4 -6
-2 -10 -12 -10 -10 0 -14 -4 -8 -8 16 -11 18 -35 2 -29 -8 3 -13 -3 -14 -15
-1 -11 -9 -28 -18 -38 -10 -11 -14 -24 -10 -29 3 -6 -2 -11 -12 -11 -15 0 -16
-2 -3 -10 8 -5 10 -10 5 -10 -10 0 -45 -70 -45 -91 0 -5 -4 -8 -9 -4 -5 3 -12
1 -16 -5 -3 -5 0 -10 7 -10 8 -1 7 -6 -5 -14 -10 -8 -18 -17 -18 -20 3 -23 -1
-36 -10 -36 -5 0 -7 5 -3 12 5 7 3 8 -5 3 -9 -5 -10 -10 -2 -18 7 -7 5 -14 -6
-22 -9 -7 -18 -23 -20 -35 -2 -13 -12 -29 -22 -36 -13 -9 -17 -21 -13 -40 3
-19 2 -25 -7 -19 -8 5 -11 1 -9 -11 2 -11 -1 -18 -7 -17 -5 1 -11 -10 -12 -25
0 -14 -9 -32 -19 -39 -10 -7 -14 -13 -9 -13 4 0 0 -10 -11 -22 -10 -12 -13
-18 -7 -14 7 4 13 2 13 -3 0 -6 -5 -11 -11 -11 -7 0 -9 -10 -7 -25 3 -14 1
-22 -5 -18 -5 3 -7 0 -5 -8 3 -8 1 -23 -5 -34 -9 -18 -8 -18 6 -7 13 11 15 10
10 -7 -3 -12 -1 -21 6 -21 6 0 11 -6 11 -14 0 -8 5 -18 12 -22 7 -5 9 -2 4 7
-4 8 2 3 13 -10 12 -13 21 -20 21 -17 0 4 9 2 20 -4 15 -8 20 -8 20 2 0 8 5 5
11 -5 8 -14 14 -16 25 -6 11 9 14 9 14 -1 0 -10 3 -10 14 -1 10 9 16 9 21 1 5
-8 11 -8 21 1 9 7 14 8 14 1 0 -10 37 -8 48 3 3 2 11 0 19 -6 10 -9 13 -8 13
1 0 9 3 10 13 1 10 -8 17 -7 25 1 9 9 12 9 12 -1 0 -10 3 -11 13 -3 8 7 18 7
27 2 9 -5 19 -5 27 2 9 7 13 7 13 -2 0 -10 3 -10 15 0 12 10 15 10 15 0 0 -9
4 -9 17 1 14 12 15 12 9 1 -7 -11 -4 -12 13 -3 16 9 21 9 21 0 0 -8 4 -8 15 1
12 10 15 10 15 -1 0 -12 2 -12 9 0 6 9 10 10 16 2 5 -9 10 -9 21 0 11 9 14 9
14 0 0 -7 5 -9 12 -5 7 5 22 8 33 8 11 0 26 -3 33 -8 7 -4 12 -2 12 6 0 9 3 9
10 -2 8 -12 10 -12 10 -1 0 10 3 11 13 2 10 -8 17 -7 25 1 9 9 12 9 12 -1 0
-11 3 -11 17 0 14 12 15 12 9 1 -7 -11 -4 -12 13 -3 16 9 21 9 21 -1 0 -9 3
-9 10 2 8 12 10 12 10 1 0 -11 3 -11 15 -1 12 10 15 10 15 0 0 -9 4 -9 17 1
15 12 16 12 8 -1 -8 -13 -7 -13 8 -1 13 10 17 10 17 1 0 -10 3 -10 15 0 11 9
15 9 15 1 0 -9 5 -9 20 -1 15 8 20 8 20 -1 0 -8 5 -7 17 2 15 12 16 12 8 -1
-8 -13 -7 -13 8 -1 13 10 17 10 17 1 0 -10 3 -10 15 0 12 10 15 10 15 0 0 -10
3 -10 15 0 12 10 15 10 15 -1 0 -10 2 -11 8 -2 5 8 13 9 22 3 9 -5 19 -5 27 2
9 7 13 7 13 0 0 -10 37 -8 48 3 3 2 11 0 19 -6 10 -9 13 -8 13 1 0 9 3 10 13
1 10 -8 17 -7 25 1 9 9 12 9 12 -1 0 -10 3 -11 13 -3 8 7 18 7 27 2 9 -5 19
-5 27 2 9 7 13 7 13 -2 0 -10 3 -10 15 0 12 10 15 10 15 0 0 -9 4 -9 17 1 14
12 15 12 9 1 -7 -11 -4 -12 13 -3 16 9 21 9 21 0 0 -8 4 -8 15 1 12 10 15 10
15 -1 0 -12 2 -12 9 0 6 9 10 10 16 2 5 -9 10 -9 21 0 11 9 14 9 14 0 0 -7 5
-9 12 -5 16 10 50 10 66 0 7 -4 12 -2 12 6 0 9 3 9 10 -2 8 -12 10 -12 10 -1
0 10 3 11 13 2 10 -8 17 -7 25 1 9 9 12 9 12 -1 0 -11 3 -11 17 0 14 12 15 12
9 1 -7 -11 -4 -12 13 -3 16 9 21 9 21 -1 0 -9 3 -9 10 2 8 12 10 12 10 1 0
-11 3 -11 15 -1 12 10 15 10 15 0 0 -9 4 -9 17 1 15 12 16 12 8 -1 -8 -13 -7
-13 8 -1 13 10 17 10 17 1 0 -10 3 -10 15 0 11 9 15 9 15 1 0 -9 5 -9 20 -1
15 8 20 8 20 -1 0 -8 5 -7 17 2 15 12 16 12 8 -1 -8 -13 -7 -13 8 -1 13 10 17
10 17 1 0 -10 3 -10 15 0 12 10 15 10 15 0 0 -10 3 -10 15 0 12 10 15 10 15
-1 0 -10 2 -11 8 -2 5 8 13 9 22 3 9 -5 19 -5 27 2 9 7 13 7 13 0 0 -10 37 -8
48 3 3 2 11 0 19 -6 10 -9 13 -8 13 1 0 9 3 10 13 1 10 -8 17 -7 25 1 9 9 12
9 12 -1 0 -10 3 -11 13 -3 8 7 18 7 27 2 9 -5 19 -5 27 2 9 7 13 7 13 -2 0
-10 3 -10 15 0 12 10 15 10 15 0 0 -9 4 -9 17 1 14 12 15 12 9 1 -7 -11 -4
-12 13 -3 16 9 21 9 21 0 0 -8 5 -7 17 2 15 12 16 12 8 -1 -8 -13 -7 -13 8 -1
13 10 17 10 17 1 0 -10 3 -10 15 0 12 10 15 10 15 0 0 -10 3 -10 15 0 12 10
15 10 15 -1 0 -12 2 -12 9 0 6 9 10 10 16 2 5 -9 10 -9 21 0 11 9 14 9 14 -1
0 -10 3 -10 15 0 11 9 15 9 15 1 0 -9 5 -9 20 -1 15 8 20 8 20 -1 0 -8 5 -7
17 2 15 12 16 12 8 -1 -8 -13 -7 -13 8 -1 13 10 17 10 17 1 0 -10 3 -10 15 0
12 10 15 10 15 0 0 -9 4 -9 17 1 15 12 16 12 8 -1 -8 -13 -7 -13 8 -1 13 10
17 10 17 1 0 -10 3 -10 15 0 12 10 15 10 15 0 0 -10 3 -10 15 0 12 10 15 10
15 -1 0 -10 2 -11 8 -2 5 8 13 9 22 3 9 -5 19 -5 27 2 9 7 13 7 13 0 0 -10 37
-8 48 3 3 2 11 0 19 -6 10 -9 13 -8 13 2 0 10 3 10 12 1 7 -7 17 -8 30 -1 13
7 18 6 18 -2 0 -8 5 -7 17 2 15 12 16 12 8 -1 -8 -13 -7 -13 8 -1 13 10 17 10
17 1 0 -10 3 -10 15 0 12 10 15 10 15 0 0 -10 3 -10 15 0 12 10 15 10 15 -1 0
-12 2 -12 9 0 6 9 10 10 16 2 5 -9 10 -9 21 0 11 9 14 9 14 -1 0 -10 3 -10 15
0 11 9 15 9 15 1 0 -9 5 -9 20 -1 15 8 20 8 20 -1 0 -8 5 -7 17 2 15 12 16 12
8 -1 -8 -13 -7 -13 8 -1 13 10 17 10 17 1 0 -10 3 -10 15 0 12 10 15 10 15 0
0 -9 4 -9 17 1 15 12 16 12 8 -1 -8 -13 -7 -13 8 -1 13 10 17 10 17 1 0 -10 3
-10 15 0 12 10 15 10 15 0 0 -10 3 -10 15 0 12 10 15 10 15 -1 0 -10 2 -11 8
-2 5 8 13 9 22 3 9 -5 19 -5 27 2 7 6 13 6 13 1 0 -5 11 -9 25 -9 14 0 25 4
25 9 0 5 8 3 17 -4 14 -12 15 -12 9 0 -7 10 -3 12 14 6 16 -5 20 -4 15 5 -6 9
-2 9 15 0 15 -8 20 -8 16 -1 -4 6 -1 12 6 12 42 4 69 19 61 33 -4 6 -1 6 9 -2
13 -10 17 -10 22 3 3 8 12 15 21 15 8 0 15 5 15 10 0 6 7 10 16 10 8 0 13 3
11 8 -5 9 30 42 37 35 3 -4 6 -1 6 6 0 7 4 9 10 6 6 -3 7 1 4 9 -5 14 4 20 27
18 3 -1 5 10 3 23 -1 14 2 25 7 25 6 0 7 5 4 10 -3 6 0 12 7 15 8 3 15 15 15
27 1 12 9 26 18 30 8 5 15 16 15 25 0 9 8 25 18 36 9 11 12 18 6 14 -6 -3 -11
0 -11 8 0 8 5 13 11 12 6 -1 10 6 10 15 -1 10 3 15 9 11 6 -4 8 0 4 10 -4 10
0 20 11 26 9 5 16 12 15 15 -3 13 10 46 19 46 5 0 6 5 3 10 -3 6 -2 10 4 10 6
0 15 9 21 20 9 16 8 19 -7 13 -12 -5 -11 -1 5 15 12 12 22 29 22 37 0 8 5 15
10 15 6 0 10 8 10 18 0 10 5 23 12 30 7 7 8 12 3 12 -6 0 -5 4 0 8 17 11 57
84 43 77 -7 -4 -2 3 12 15 14 12 20 19 13 16 -6 -4 -14 -2 -18 4 -3 5 1 10 10
10 12 0 15 5 11 16 -5 13 -3 14 7 6 10 -8 13 -7 14 6 4 51 8 61 19 51 8 -6 10
-2 9 16 -2 14 1 25 7 25 6 0 7 7 4 16 -5 12 -2 15 10 10 14 -6 15 -4 4 9 -11
13 -11 16 0 13 8 -2 15 3 16 10 1 6 2 17 3 22 0 6 9 10 19 11 14 0 14 2 -3 9
-11 5 -14 9 -6 9 7 1 11 7 8 15 -4 11 -1 13 11 9 9 -3 14 -2 9 2 -4 5 0 19 8
32 9 13 12 23 8 23 -5 0 0 5 11 11 15 9 16 13 5 20 -11 7 -10 9 4 9 10 0 16 4
13 9 -4 5 0 12 6 14 10 4 10 6 0 6 -8 1 -6 9 8 23 11 12 18 28 16 34 -3 7 2
15 10 18 9 3 12 10 9 16 -3 5 -1 10 4 10 6 0 10 3 10 8 -3 19 2 33 11 27 6 -3
10 3 10 14 0 12 4 21 10 21 5 0 6 7 3 17 -5 12 -3 14 8 8 11 -7 11 -5 -1 10
-8 10 -10 16 -5 13 6 -3 19 6 30 21 15 20 15 23 2 12 -23 -18 -21 -9 3 19 11
13 20 29 20 37 0 7 4 13 9 13 5 0 12 7 15 16 3 8 2 12 -4 9 -6 -3 -7 1 -4 9 3
9 12 16 20 16 8 0 11 6 8 15 -4 8 -1 15 5 15 6 0 8 7 4 17 -4 10 -2 14 4 10 5
-4 15 5 22 19 8 19 8 23 0 18 -7 -4 -2 7 11 24 12 16 19 35 16 41 -4 6 0 11 9
11 10 0 15 7 13 18 -2 10 2 16 10 14 8 -1 11 2 8 7 -4 5 -1 13 5 16 5 4 8 13
5 21 -3 8 -1 14 5 14 6 0 9 6 6 14 -7 19 21 58 36 49 7 -4 6 1 -2 11 -8 9 -10
16 -5 14 5 -2 10 2 12 7 2 6 11 19 20 29 9 11 11 16 5 12 -18 -10 -16 2 2 21
8 8 12 19 9 25 -4 7 -2 8 4 4 7 -4 13 -2 13 3 1 6 2 17 3 24 1 6 8 11 15 9 7
-1 9 2 5 9 -3 6 0 15 7 20 11 7 11 9 1 9 -10 0 -9 4 2 16 9 8 14 20 11 25 -4
5 -1 9 4 9 14 0 14 47 1 55 -6 4 -7 12 -3 18 12 19 12 38 0 30 -6 -4 -8 0 -4
10 4 11 1 15 -12 12 -15 -3 -18 1 -14 18 3 16 2 18 -5 9 -7 -11 -10 -11 -16 3
-3 9 -10 13 -16 10 -5 -3 -10 -1 -10 6 0 7 -3 9 -7 6 -3 -4 -13 -1 -21 6 -13
9 -14 9 -8 0 4 -7 2 -13 -3 -13 -6 0 -11 6 -11 13 0 8 -4 7 -10 -3 -8 -13 -10
-13 -10 -1 0 11 -4 9 -14 -5 -14 -18 -15 -18 -22 -1 -5 15 -9 16 -15 5 -6 -9
-9 -9 -9 -1 0 8 -9 9 -29 3 -21 -6 -33 -4 -47 9 -17 15 -17 15 -4 -2 12 -16
11 -17 -14 -8 -22 9 -26 8 -26 -7 0 -14 -2 -14 -9 -3 -5 8 -17 16 -25 17 -9 1
-14 -2 -10 -7 3 -5 -6 -5 -20 1 -19 7 -26 6 -26 -3 0 -6 -7 -3 -15 7 -13 18
-15 18 -15 3 0 -15 -3 -16 -22 -6 -18 10 -20 9 -14 -6 6 -15 4 -16 -10 -4 -19
15 -47 21 -38 8 3 -5 -6 -5 -20 1 -15 5 -26 6 -26 0 0 -5 -13 -5 -32 1 -40 11
-40 11 -34 0 4 -5 -1 -8 -10 -7 -8 1 -20 9 -25 17 -7 11 -9 11 -9 -4 0 -15 -3
-16 -20 -7 -17 9 -20 8 -20 -7 0 -15 -2 -15 -9 -4 -5 8 -17 16 -25 17 -9 1
-14 -2 -10 -7 3 -5 -6 -5 -20 1 -19 7 -26 6 -27 -3 0 -6 -4 -3 -9 8 -8 18 -9
18 -9 2 -1 -10 -5 -15 -11 -12 -19 12 -51 14 -44 3 4 -6 -1 -8 -15 -4 -11 3
-31 9 -42 12 -13 4 -19 2 -15 -4 3 -6 -1 -9 -10 -8 -8 1 -20 9 -25 17 -7 11
-9 11 -9 -4 0 -15 -3 -16 -20 -7 -17 9 -20 8 -20 -7 0 -15 -2 -15 -9 -4 -5 8
-17 16 -25 17 -9 1 -14 -2 -10 -7 3 -5 -6 -5 -20 1 -19 7 -26 6 -27 -3 0 -6
-4 -3 -9 8 -8 18 -9 18 -9 2 -1 -10 -5 -15 -11 -12 -15 9 -51 15 -46 7 2 -4
-9 -7 -25 -7 -16 0 -29 5 -29 10 0 6 -5 3 -10 -5 -9 -13 -10 -13 -10 0 0 13
-1 13 -10 0 -9 -13 -10 -13 -10 0 0 13 -1 13 -10 0 -6 -9 -10 -10 -10 -3 0 8
-9 9 -31 3 -27 -8 -30 -7 -25 8 6 16 5 16 -7 0 -8 -10 -17 -15 -20 -11 -11 11
-87 9 -88 -2 0 -5 -4 -1 -9 10 -8 18 -9 18 -9 2 -1 -11 -5 -15 -13 -11 -18 11
-88 11 -89 -1 0 -5 -4 -1 -9 10 -8 18 -9 18 -9 2 -1 -10 -5 -15 -11 -12 -15 9
-51 15 -46 7 2 -4 -9 -7 -25 -7 -16 0 -29 5 -29 10 0 6 -5 3 -10 -5 -9 -13
-10 -13 -10 0 0 13 -1 13 -10 0 -9 -13 -10 -13 -10 0 0 13 -1 13 -10 0 -5 -8
-10 -10 -10 -4 0 7 -17 8 -50 4 -33 -4 -50 -3 -50 4 0 6 -5 4 -10 -4 -9 -13
-10 -13 -10 0 0 13 -1 13 -10 0 -9 -13 -10 -13 -10 0 0 13 -1 13 -10 0 -6 -9
-10 -10 -10 -3 0 8 -9 9 -31 3 -27 -8 -30 -7 -25 8 6 16 5 16 -7 0 -8 -10 -17
-15 -20 -11 -11 11 -87 9 -88 -2 0 -5 -4 -1 -9 10 -8 18 -9 18 -9 2 -1 -11 -5
-15 -13 -11 -18 11 -88 11 -89 -1 0 -5 -4 -1 -9 10 -8 18 -9 18 -9 2 -1 -10
-5 -15 -11 -12 -15 9 -51 15 -46 7 2 -4 -9 -7 -25 -7 -16 0 -29 5 -29 10 0 6
-5 3 -10 -5 -9 -13 -10 -13 -10 0 0 13 -1 13 -10 0 -9 -13 -10 -13 -10 0 0 13
-1 13 -10 0 -6 -9 -10 -10 -10 -3 0 8 -9 9 -29 3 -21 -6 -33 -4 -47 9 -17 15
-17 15 -4 -2 12 -16 11 -17 -14 -8 -22 9 -26 8 -26 -7 0 -14 -2 -14 -9 -3 -5
8 -17 16 -25 17 -9 1 -14 -2 -10 -7 3 -5 -6 -5 -20 1 -19 7 -26 6 -26 -3 0 -6
-7 -3 -15 7 -13 18 -15 18 -15 3 0 -15 -3 -16 -22 -6 -18 10 -20 9 -14 -6 6
-15 4 -16 -10 -4 -19 15 -47 22 -39 8 4 -5 -4 -5 -17 0 -13 4 -35 5 -50 0 -19
-5 -28 -4 -28 4 0 7 -4 6 -10 -3 -9 -13 -10 -13 -10 0 0 13 -1 13 -10 0 -9
-13 -10 -13 -10 0 0 13 -1 13 -10 0 -6 -9 -10 -10 -10 -3 0 8 -9 9 -31 3 -27
-8 -30 -7 -25 8 6 16 5 16 -7 0 -8 -10 -17 -15 -20 -11 -11 11 -87 9 -88 -2 0
-5 -4 -1 -9 10 -8 18 -9 18 -9 2 -1 -11 -5 -15 -13 -11 -18 11 -88 11 -89 -1
0 -5 -4 -1 -9 10 -8 18 -9 18 -9 2 -1 -10 -5 -15 -11 -12 -15 9 -51 15 -46 7
2 -4 -9 -7 -25 -7 -16 0 -29 5 -29 10 0 6 -5 3 -10 -5 -9 -13 -10 -13 -10 0 0
13 -1 13 -10 0 -9 -13 -10 -13 -10 0 0 13 -1 13 -10 0 -6 -9 -10 -10 -10 -3 0
8 -9 9 -29 3 -21 -6 -33 -4 -47 9 -17 15 -17 15 -4 -2z m-1293 -1882 c0 -8 -4
-12 -9 -9 -5 3 -6 10 -3 15 9 13 12 11 12 -6z m-37 -65 c0 -5 -5 -10 -11 -10
-5 0 -7 5 -4 10 3 6 8 10 11 10 2 0 4 -4 4 -10z"/>
<path d="M4926 2913 c-6 -14 -5 -15 5 -6 7 7 10 15 7 18 -3 3 -9 -2 -12 -12z"/>
</g>
</svg>
